<svg xmlns="http://www.w3.org/2000/svg" width="18" height="18" viewBox="0 0 24 24" fill="white"><path d="M4.713 17.644c.473-.294 1.15-.61 2.021-.889C7.658 17.344 9.438 18 12 18s4.342-.656 5.266-1.245c.871.278 1.549.595 2.022.889C17.714 19.386 14.367 20 12 20s-5.713-.614-7.287-2.356zm14.208-4.54a7.244 7.244 0 0 1-.92 1.786C20.534 15.729 22 17.001 22 18c0 1.631-3.896 4-10 4S2 19.631 2 18c0-.999 1.466-2.271 3.999-3.11a7.24 7.24 0 0 1-.919-1.786C2.01 14.19 0 15.977 0 18c0 3.313 5.373 6 12 6 6.629 0 12-2.687 12-6 0-2.023-2.01-3.809-5.079-4.896zm-1.587-2.388C17.334 13.635 14.948 16 12 16c-2.947 0-5.333-2.365-5.333-5.284C6.667 7.799 8.754 4.798 12 0c3.247 4.798 5.334 7.799 5.334 10.716zM10 7.073c0 1.586 2.667 1.159 2.667-1.447 0-.889-.374-1.729-.685-2.213C11.326 4.377 10 5.985 10 7.073z"/></svg>